<svg id="Layer_1" data-name="Layer 1" xmlns="http://www.w3.org/2000/svg" viewBox="0 0 500 500"><defs><style>.cls-1{opacity:0.08;}.cls-2{fill:#fff;}</style></defs><g class="cls-1"><path class="cls-2" d="M376.65,431.71v24.62c-11.66,3.89-25.27,6.47-45.35,6.47-39.51,0-58.95-9.71-68-38.21l-31.74-99.77c-15.55-48.59-35-57-84.87-57H123.35v-32.4h51.83c54,0,82-28.52,87.66-73.84H123.35v-32.4H263c-5.13-37.44-31.63-59.59-81.33-59.59H123.35V37.2H374.7V69.59H290c17.31,14.94,28.87,34.48,32,59.59H374.7v32.4H321.81c-5.38,44.4-31.82,83.57-94.95,95.58,32,9.5,47.35,30.87,63.63,78l31.91,90.5Z"/></g><path class="cls-2" d="M41.09,208.37l5.06-5.62-3.6,20h-6.3l.9-20H98.58l.9,20h-6.3l-3.6-20,5.06,5.62ZM69,271.94l15.75,1.68v4.5H51v-4.5l15.75-1.68ZM62.8,237.62c0-11.58,0-23.28-.34-34.87h10.8c-.33,11.36-.33,23.06-.33,34.87v5.63c0,11.59,0,23.29.33,34.87H62.46c.34-11.36.34-23.06.34-34.87Z"/><path class="cls-2" d="M111.62,254.5v-5.29c0-6.19-.11-9.67-.33-14.17l-9-1v-3.93l15.3-6.75,1.69,1.12,1.34,14.06v16c0,7,.12,18.56.34,23.62h-9.67C111.51,273.06,111.62,261.47,111.62,254.5Zm-8.43,19.69,12.37-2.25h2.25l12.38,2.25v3.93h-27Zm12.93-34.88h6.42l-2.81.79c3.6-10.46,10.46-16.76,17.1-16.76,3.26,0,6.63,1.57,8,3.82,0,5.29-2,8.21-6.52,8.21a10.23,10.23,0,0,1-6.75-2.7l-3-2.58L134,229c-7,3.6-11,9.23-13.61,17.89h-4.28Z"/><path class="cls-2" d="M168.1,248.65a123.44,123.44,0,0,1,17.44-4.73V248a103.24,103.24,0,0,0-15.08,4.5c-10.12,3.94-11.25,8.22-11.25,11.48,0,6,3.94,8.32,9.12,8.32,3.93,0,6.18-1.46,13.27-6.52l2.25-1.69,1.58,2.36-3.27,3.27c-6.75,6.75-10.57,9.9-17.43,9.9-8.22,0-15.08-4.73-15.08-14.07C149.65,259.22,153,254.16,168.1,248.65ZM181,267.77V242.12c0-11-3.15-13.72-10.58-13.72a26.29,26.29,0,0,0-10.12,2l4.5-3.48-2.93,9.67c-1,3.26-2.7,5.06-5.73,5.06s-4.84-1.68-5.07-4.5c2.14-8.55,10.47-13.83,21.72-13.83,11.58,0,17.21,5.28,17.21,19.46v23.85c0,5.06,1.57,6.86,4.16,6.86,1.91,0,3.15-1,4.39-2.47l2.25,2.47c-2.7,4.28-5.74,5.74-9.56,5.74C185.09,279.25,181,274.75,181,267.77Z"/><path class="cls-2" d="M214,278.12c.23-5.06.34-16.65.34-23.62v-5.29c0-6.19-.11-9.67-.34-14.17l-9-1v-3.93l15.3-6.75,1.69,1.12,1.35,13v17c0,7,.11,18.56.34,23.62Zm17.55-3.93v3.93H205.68v-3.93l12.37-2.25h2.25Zm26-30V254.5c0,7.2.11,18.56.34,23.62H248.2c.23-5.06.34-16.42.34-23.62v-9.45c0-10.46-2.7-13.84-9.45-13.84-5.63,0-10.24,2.25-16.65,7.76h-2.36v-5.06h5.73l-4.83,2c5.28-7.09,14.28-12.6,22.27-12.6C252.93,223.34,257.54,229.3,257.54,244.15Zm-3,27.79,11.25,2.25v3.93H239.88v-3.93l12.37-2.25Z"/><path class="cls-2" d="M275,275.31l-.45-12.26h6l3,13.28L278,273.74v-3.83a21.4,21.4,0,0,0,13.84,4.62c8.66,0,12.71-3.49,12.71-8.67,0-4.84-3.37-7.31-10.46-9.9l-5.17-1.91c-8.22-3-13.62-7.43-13.62-15.08,0-8.1,6.87-15.63,19.35-15.63A28.62,28.62,0,0,1,310.3,228l-.45,11.36h-5.62L302,228l4,1.8v2.92a18.42,18.42,0,0,0-11.48-4.27c-7,0-10.57,3-10.57,7.76,0,5.06,2.81,7,10.46,9.79l3.37,1.24c11.25,4.16,15.53,9.45,15.53,16.42,0,8.33-7.31,16-21.71,16A34.31,34.31,0,0,1,275,275.31Z"/><path class="cls-2" d="M341.46,248.65a123.81,123.81,0,0,1,17.44-4.73V248a102.7,102.7,0,0,0-15.07,4.5c-10.13,3.94-11.25,8.22-11.25,11.48,0,6,3.93,8.32,9.11,8.32,3.94,0,6.19-1.46,13.27-6.52l2.25-1.69,1.58,2.36-3.26,3.27c-6.75,6.75-10.58,9.9-17.44,9.9-8.21,0-15.08-4.73-15.08-14.07C323,259.22,326.39,254.16,341.46,248.65Zm12.94,19.12V242.12c0-11-3.15-13.72-10.57-13.72a26.3,26.3,0,0,0-10.13,2l4.5-3.48-2.92,9.67c-1,3.26-2.7,5.06-5.74,5.06s-4.84-1.68-5.06-4.5c2.13-8.55,10.46-13.83,21.71-13.83,11.59,0,17.21,5.28,17.21,19.46v23.85c0,5.06,1.58,6.86,4.16,6.86,1.92,0,3.15-1,4.39-2.47l2.25,2.47c-2.7,4.28-5.74,5.74-9.56,5.74C358.45,279.25,354.4,274.75,354.4,267.77Z"/><path class="cls-2" d="M389.16,250.56c0,14.18,7.54,21.94,18.12,21.94A18.15,18.15,0,0,0,423,263.72l2.7,1.35c-3,9.34-10.24,14.52-20.82,14.52-15.41,0-25.08-10.8-25.08-28,0-17.66,12.37-28.23,25.76-28.23,10,0,18.34,6.18,19.8,14.51a4.65,4.65,0,0,1-5.06,4.16c-3.72,0-5.18-2.25-6-5.06l-2.81-9.9,5.18,4.16a23.47,23.47,0,0,0-10.8-2.81C396.14,228.4,389.16,236.16,389.16,250.56Z"/><path class="cls-2" d="M455.43,274c2.47,0,4.72-1,7.65-3.15l2.58,3c-2.81,3.6-7.42,5.74-13.05,5.74-7.76,0-12.6-4-12.6-12.71,0-2.71.11-5.07.11-9.46V230.65h-9.45v-4.84l13.95-1.8-4.5,3.71,3.38-18.22H450l-.91,19.69v36.45C449.12,271.49,451.6,274,455.43,274Zm9.22-49.16v5.85h-20V224.8Z"/><rect class="cls-2" x="57.2" y="301.04" width="385.61" height="11.74"/></svg>